<svg width="20" height="36" fill="none" xmlns="http://www.w3.org/2000/svg"><path d="M19.619 23.211c0-7.672-14.144-7.171-14.144-11.803 0-2.242 2.145-3.337 4.633-3.337 4.184 0 4.929 2.688 6.824 2.688 1.342 0 1.988-.845 1.988-1.792 0-2.201-3.337-3.867-6.537-4.444V2.399a2.4 2.4 0 00-4.798 0v2.199c-3.489.794-6.49 3.214-6.49 7.159 0 7.369 14.142 7.071 14.142 12.247 0 1.793-1.941 3.586-5.129 3.586-4.781 0-6.374-3.236-8.316-3.236C.846 24.354 0 25.15 0 26.35c0 1.906 3.195 4.2 7.588 4.841l-.003.015v2.397a2.401 2.401 0 004.8 0v-2.397c0-.028-.014-.05-.016-.075 3.953-.738 7.25-3.315 7.25-7.92z" fill="#fff"/></svg>