<svg width="36" height="36" fill="none" xmlns="http://www.w3.org/2000/svg"><path d="M10.392 0h15.05c5.733 0 10.391 4.658 10.391 10.392v15.05a10.392 10.392 0 01-10.391 10.391h-15.05C4.658 35.833 0 31.175 0 25.442v-15.05A10.392 10.392 0 0110.392 0zm-.359 3.583a6.45 6.45 0 00-6.45 6.45V25.8a6.446 6.446 0 006.45 6.45H25.8a6.45 6.45 0 006.45-6.45V10.033a6.446 6.446 0 00-6.45-6.45H10.033zm17.29 2.688a2.24 2.24 0 110 4.479 2.24 2.24 0 010-4.48zm-9.406 2.687a8.958 8.958 0 110 17.917 8.958 8.958 0 010-17.917zm0 3.584a5.375 5.375 0 100 10.75 5.375 5.375 0 000-10.75z" fill="#fff"/></svg>