<svg width="33" height="41" fill="none" xmlns="http://www.w3.org/2000/svg"><path d="M16.333 20.417c1.123 0 2.085-.4 2.885-1.2.8-.801 1.2-1.762 1.199-2.884 0-1.123-.4-2.084-1.2-2.884-.801-.8-1.762-1.2-2.884-1.199-1.123 0-2.084.4-2.884 1.2-.8.8-1.2 1.762-1.199 2.883 0 1.123.4 2.085 1.2 2.885.8.8 1.762 1.2 2.883 1.199zm0 15.006c4.152-3.811 7.231-7.274 9.239-10.388 2.008-3.114 3.011-5.879 3.011-8.293 0-3.71-1.182-6.746-3.548-9.11-2.366-2.364-5.266-3.547-8.702-3.549-3.436 0-6.338 1.183-8.703 3.549-2.366 2.365-3.548 5.402-3.547 9.11 0 2.416 1.004 5.18 3.012 8.295 2.007 3.114 5.087 6.576 9.238 10.386zm0 5.41c-5.478-4.661-9.57-8.991-12.274-12.989C1.354 23.847 0 20.146 0 16.742c0-5.105 1.642-9.17 4.927-12.2C8.21 1.515 12.013 0 16.333 0c4.322 0 8.125 1.514 11.41 4.543 3.284 3.028 4.925 7.094 4.924 12.199 0 3.402-1.353 7.103-4.06 11.102-2.705 4-6.797 8.329-12.274 12.99z" fill="#fff"/></svg>