<svg width="40" height="40" fill="none" xmlns="http://www.w3.org/2000/svg"><path d="M31.667 5a5 5 0 015 5v16.667a5 5 0 01-5 5H12.222l-5.555 4.166c-1.374 1.03-3.334.05-3.334-1.666V10a5 5 0 015-5h23.334zm0 3.333H8.333A1.667 1.667 0 006.667 10v21.667L10.222 29a3.334 3.334 0 012-.667h19.445a1.667 1.667 0 001.666-1.666V10a1.667 1.667 0 00-1.666-1.667zM18.333 20a1.667 1.667 0 01.195 3.322l-.195.011h-5a1.666 1.666 0 01-.195-3.321l.195-.012h5zm8.334-6.667a1.666 1.666 0 110 3.334H13.333a1.666 1.666 0 110-3.334h13.334z" fill="#fff"/></svg>