<svg width="53" height="40" fill="none" xmlns="http://www.w3.org/2000/svg"><path d="M50.962 0H2.038C1.498 0 .98.21.598.586A1.981 1.981 0 000 2v34c0 1.06.43 2.078 1.194 2.828A4.117 4.117 0 004.077 40h44.846a4.117 4.117 0 002.883-1.172A3.962 3.962 0 0053 36V2c0-.53-.215-1.04-.597-1.414A2.058 2.058 0 0050.962 0zM26.5 21.288L7.28 4h38.44L26.5 21.288zM19.037 20L4.077 33.453V6.547L19.037 20zm3.017 2.712l3.057 2.763a2.06 2.06 0 001.379.527 2.06 2.06 0 001.378-.527l3.058-2.763L45.705 36H7.28l14.774-13.288zM33.964 20l14.96-13.455v26.91L33.963 20z" fill="#fff"/></svg>