<svg width="33" height="37" fill="none" xmlns="http://www.w3.org/2000/svg"><path d="M11 16.5v3.667H7.333V16.5H11zm7.333 0v3.667h-3.666V16.5h3.666zm7.334 0v3.667H22V16.5h3.667zm3.666-12.833A3.667 3.667 0 0133 7.333V33a3.667 3.667 0 01-3.667 3.667H3.667A3.666 3.666 0 010 33V7.333a3.667 3.667 0 013.667-3.666H5.5V0h3.667v3.667h14.666V0H27.5v3.667h1.833zm0 29.333V12.833H3.667V33h25.666zM11 23.833V27.5H7.333v-3.667H11zm7.333 0V27.5h-3.666v-3.667h3.666zm7.334 0V27.5H22v-3.667h3.667z" fill="#fff"/></svg>