<svg width="33" height="37" viewBox="0 0 33 37" fill="none" xmlns="http://www.w3.org/2000/svg">
<path d="M11 16.5V20.1667H7.33333V16.5H11ZM18.3333 16.5V20.1667H14.6667V16.5H18.3333ZM25.6667 16.5V20.1667H22V16.5H25.6667ZM29.3333 3.66667C30.3058 3.66667 31.2384 4.05297 31.9261 4.74061C32.6137 5.42824 33 6.36087 33 7.33333V33C33 33.9725 32.6137 34.9051 31.9261 35.5927C31.2384 36.2804 30.3058 36.6667 29.3333 36.6667H3.66667C2.69421 36.6667 1.76157 36.2804 1.07394 35.5927C0.386308 34.9051 0 33.9725 0 33V7.33333C0 6.36087 0.386308 5.42824 1.07394 4.74061C1.76157 4.05297 2.69421 3.66667 3.66667 3.66667H5.5V0H9.16667V3.66667H23.8333V0H27.5V3.66667H29.3333ZM29.3333 33V12.8333H3.66667V33H29.3333ZM11 23.8333V27.5H7.33333V23.8333H11ZM18.3333 23.8333V27.5H14.6667V23.8333H18.3333ZM25.6667 23.8333V27.5H22V23.8333H25.6667Z" fill="white"/>
</svg>
