<svg width="20" height="36" viewBox="0 0 20 36" fill="none" xmlns="http://www.w3.org/2000/svg">
<path d="M19.619 23.211C19.619 15.539 5.475 16.04 5.475 11.408C5.475 9.166 7.62 8.071 10.108 8.071C14.292 8.071 15.037 10.759 16.932 10.759C18.274 10.759 18.92 9.914 18.92 8.967C18.92 6.766 15.583 5.1 12.383 4.523V2.399C12.383 1.76275 12.1302 1.15255 11.6803 0.702651C11.2304 0.252751 10.6203 0 9.984 0C9.34774 0 8.73755 0.252751 8.28765 0.702651C7.83775 1.15255 7.585 1.76275 7.585 2.399V4.598C4.096 5.392 1.095 7.812 1.095 11.757C1.095 19.126 15.237 18.828 15.237 24.004C15.237 25.797 13.296 27.59 10.108 27.59C5.327 27.59 3.734 24.354 1.792 24.354C0.846 24.354 0 25.15 0 26.35C0 28.256 3.195 30.55 7.588 31.191L7.585 31.206V33.603C7.60303 34.2275 7.86379 34.8204 8.31191 35.2558C8.76003 35.6912 9.36021 35.9347 9.985 35.9347C10.6098 35.9347 11.21 35.6912 11.6581 35.2558C12.1062 34.8204 12.367 34.2275 12.385 33.603V31.206C12.385 31.178 12.371 31.156 12.369 31.131C16.322 30.393 19.619 27.816 19.619 23.211Z" fill="white"/>
</svg>
