<svg width="33" height="33" viewBox="0 0 33 33" fill="none" xmlns="http://www.w3.org/2000/svg">
<path d="M22.2203 32.625V20.1443H26.4002L27.0255 15.2924H22.2203V12.1964C22.2203 10.7917 22.6108 9.83321 24.6247 9.83321H27.1939V5.49379C25.9501 5.36183 24.7001 5.29783 23.4493 5.30208C19.746 5.30208 17.2107 7.56317 17.2107 11.7162V15.2924H13.0218V20.1443H17.2107V32.625H1.79167C1.31649 32.625 0.86077 32.4362 0.524767 32.1002C0.188764 31.7642 0 31.3085 0 30.8333V2.16667C0 1.69149 0.188764 1.23577 0.524767 0.899767C0.86077 0.563764 1.31649 0.375 1.79167 0.375H30.4583C30.9335 0.375 31.3892 0.563764 31.7252 0.899767C32.0612 1.23577 32.25 1.69149 32.25 2.16667V30.8333C32.25 31.3085 32.0612 31.7642 31.7252 32.1002C31.3892 32.4362 30.9335 32.625 30.4583 32.625H22.2203Z" fill="white"/>
</svg>
