<svg width="36" height="36" viewBox="0 0 36 36" fill="none" xmlns="http://www.w3.org/2000/svg">
<path d="M10.3917 0H25.4417C31.175 0 35.8333 4.65833 35.8333 10.3917V25.4417C35.8333 28.1977 34.7385 30.8409 32.7897 32.7897C30.8409 34.7385 28.1977 35.8333 25.4417 35.8333H10.3917C4.65833 35.8333 0 31.175 0 25.4417V10.3917C0 7.63563 1.09483 4.99246 3.04365 3.04365C4.99246 1.09483 7.63563 0 10.3917 0ZM10.0333 3.58333C8.32269 3.58333 6.6821 4.26289 5.47249 5.47249C4.26289 6.6821 3.58333 8.32269 3.58333 10.0333V25.8C3.58333 29.3654 6.46792 32.25 10.0333 32.25H25.8C27.5106 32.25 29.1512 31.5704 30.3608 30.3608C31.5704 29.1512 32.25 27.5106 32.25 25.8V10.0333C32.25 6.46792 29.3654 3.58333 25.8 3.58333H10.0333ZM27.3229 6.27083C27.9169 6.27083 28.4865 6.50679 28.9065 6.92679C29.3265 7.3468 29.5625 7.91644 29.5625 8.51042C29.5625 9.10439 29.3265 9.67404 28.9065 10.094C28.4865 10.514 27.9169 10.75 27.3229 10.75C26.7289 10.75 26.1593 10.514 25.7393 10.094C25.3193 9.67404 25.0833 9.10439 25.0833 8.51042C25.0833 7.91644 25.3193 7.3468 25.7393 6.92679C26.1593 6.50679 26.7289 6.27083 27.3229 6.27083ZM17.9167 8.95833C20.2926 8.95833 22.5712 9.90215 24.2512 11.5822C25.9312 13.2622 26.875 15.5408 26.875 17.9167C26.875 20.2926 25.9312 22.5712 24.2512 24.2512C22.5712 25.9312 20.2926 26.875 17.9167 26.875C15.5408 26.875 13.2622 25.9312 11.5822 24.2512C9.90215 22.5712 8.95833 20.2926 8.95833 17.9167C8.95833 15.5408 9.90215 13.2622 11.5822 11.5822C13.2622 9.90215 15.5408 8.95833 17.9167 8.95833ZM17.9167 12.5417C16.4911 12.5417 15.124 13.108 14.116 14.116C13.108 15.124 12.5417 16.4911 12.5417 17.9167C12.5417 19.3422 13.108 20.7094 14.116 21.7174C15.124 22.7254 16.4911 23.2917 17.9167 23.2917C19.3422 23.2917 20.7094 22.7254 21.7174 21.7174C22.7254 20.7094 23.2917 19.3422 23.2917 17.9167C23.2917 16.4911 22.7254 15.124 21.7174 14.116C20.7094 13.108 19.3422 12.5417 17.9167 12.5417Z" fill="white"/>
</svg>
