<svg width="33" height="41" viewBox="0 0 33 41" fill="none" xmlns="http://www.w3.org/2000/svg">
<path d="M16.3333 20.4167C17.4563 20.4167 18.4179 20.0165 19.2182 19.2162C20.0185 18.4158 20.418 17.4549 20.4167 16.3333C20.4167 15.2104 20.0165 14.2488 19.2162 13.4485C18.4158 12.6481 17.4549 12.2486 16.3333 12.25C15.2104 12.25 14.2488 12.6502 13.4485 13.4505C12.6481 14.2508 12.2486 15.2118 12.25 16.3333C12.25 17.4562 12.6502 18.4179 13.4505 19.2182C14.2508 20.0185 15.2118 20.418 16.3333 20.4167ZM16.3333 35.4229C20.4847 31.6118 23.5642 28.1491 25.5719 25.0349C27.5795 21.9207 28.5833 19.1563 28.5833 16.7417C28.5833 13.0326 27.4005 9.996 25.0349 7.63175C22.6693 5.2675 19.7688 4.08469 16.3333 4.08333C12.8965 4.08333 9.99532 5.26614 7.62971 7.63175C5.2641 9.99736 4.08197 13.034 4.08333 16.7417C4.08333 19.1576 5.08715 21.9227 7.09479 25.037C9.10243 28.1512 12.1819 31.6132 16.3333 35.4229ZM16.3333 40.8333C10.8549 36.1715 6.76336 31.8418 4.05883 27.8442C1.35431 23.8467 0.00136111 20.1458 0 16.7417C0 11.6375 1.64218 7.57118 4.92654 4.54271C8.2109 1.51424 12.0132 0 16.3333 0C20.6549 0 24.4578 1.51424 27.7422 4.54271C31.0265 7.57118 32.668 11.6375 32.6667 16.7417C32.6667 20.1444 31.3137 23.8453 28.6078 27.8442C25.9019 31.8432 21.8104 36.1729 16.3333 40.8333Z" fill="white"/>
</svg>
