<svg width="53" height="40" viewBox="0 0 53 40" fill="none" xmlns="http://www.w3.org/2000/svg">
<path d="M50.9615 0H2.03846C1.49783 0 0.979337 0.210714 0.597051 0.585787C0.214766 0.96086 0 1.46957 0 2V36C0 37.0609 0.429532 38.0783 1.1941 38.8284C1.95867 39.5786 2.99566 40 4.07692 40H48.9231C50.0043 40 51.0413 39.5786 51.8059 38.8284C52.5705 38.0783 53 37.0609 53 36V2C53 1.46957 52.7852 0.96086 52.4029 0.585787C52.0207 0.210714 51.5022 0 50.9615 0ZM26.5 21.2875L7.27986 4H45.7201L26.5 21.2875ZM19.0367 20L4.07692 33.4525V6.5475L19.0367 20ZM22.0536 22.7125L25.1113 25.475C25.4874 25.8137 25.9793 26.0017 26.4898 26.0017C27.0003 26.0017 27.4922 25.8137 27.8683 25.475L30.926 22.7125L45.7049 36H7.27986L22.0536 22.7125ZM33.9633 20L48.9231 6.545V33.455L33.9633 20Z" fill="white"/>
</svg>
