<svg width="40" height="40" viewBox="0 0 40 40" fill="none" xmlns="http://www.w3.org/2000/svg">
<path d="M31.6667 5C32.9928 5 34.2646 5.52678 35.2022 6.46447C36.1399 7.40215 36.6667 8.67392 36.6667 10V26.6667C36.6667 27.9928 36.1399 29.2645 35.2022 30.2022C34.2646 31.1399 32.9928 31.6667 31.6667 31.6667H12.2217L6.66671 35.8333C5.29337 36.8633 3.33337 35.8833 3.33337 34.1667V10C3.33337 8.67392 3.86016 7.40215 4.79784 6.46447C5.73552 5.52678 7.00729 5 8.33337 5H31.6667ZM31.6667 8.33333H8.33337C7.89135 8.33333 7.46742 8.50893 7.15486 8.82149C6.8423 9.13405 6.66671 9.55797 6.66671 10V31.6667L10.2217 29C10.7987 28.5673 11.5005 28.3333 12.2217 28.3333H31.6667C32.1087 28.3333 32.5327 28.1577 32.8452 27.8452C33.1578 27.5326 33.3334 27.1087 33.3334 26.6667V10C33.3334 9.55797 33.1578 9.13405 32.8452 8.82149C32.5327 8.50893 32.1087 8.33333 31.6667 8.33333ZM18.3334 20C18.7582 20.0005 19.1668 20.1631 19.4757 20.4547C19.7845 20.7464 19.9704 21.1449 19.9953 21.569C20.0202 21.9931 19.8822 22.4106 19.6096 22.7364C19.3369 23.0621 18.9502 23.2715 18.5284 23.3217L18.3334 23.3333H13.3334C12.9086 23.3329 12.5 23.1702 12.1911 22.8786C11.8822 22.587 11.6963 22.1884 11.6714 21.7643C11.6465 21.3403 11.7845 20.9227 12.0571 20.5969C12.3298 20.2712 12.7165 20.0618 13.1384 20.0117L13.3334 20H18.3334ZM26.6667 13.3333C27.1087 13.3333 27.5327 13.5089 27.8452 13.8215C28.1578 14.1341 28.3334 14.558 28.3334 15C28.3334 15.442 28.1578 15.866 27.8452 16.1785C27.5327 16.4911 27.1087 16.6667 26.6667 16.6667H13.3334C12.8913 16.6667 12.4674 16.4911 12.1549 16.1785C11.8423 15.866 11.6667 15.442 11.6667 15C11.6667 14.558 11.8423 14.1341 12.1549 13.8215C12.4674 13.5089 12.8913 13.3333 13.3334 13.3333H26.6667Z" fill="white"/>
</svg>
