<svg width="28" height="32" viewBox="0 0 28 32" fill="none" xmlns="http://www.w3.org/2000/svg">
<path d="M21.77 4.935C20.5737 3.56934 19.9145 1.81551 19.915 0H14.5075V21.7C14.4658 22.8743 13.97 23.9866 13.1246 24.8026C12.2792 25.6187 11.15 26.0748 9.975 26.075C7.49 26.075 5.425 24.045 5.425 21.525C5.425 18.515 8.33 16.2575 11.3225 17.185V11.655C5.285 10.85 0 15.54 0 21.525C0 27.3525 4.83 31.5 9.9575 31.5C15.4525 31.5 19.915 27.0375 19.915 21.525V10.5175C22.1077 12.0922 24.7404 12.9371 27.44 12.9325V7.525C27.44 7.525 24.15 7.6825 21.77 4.935Z" fill="white"/>
</svg>
